<?xml version="1.0" encoding="utf-8"?>
<!-- Generator: Adobe Illustrator 16.0.0, SVG Export Plug-In . SVG Version: 6.00 Build 0)  -->
<!DOCTYPE svg PUBLIC "-//W3C//DTD SVG 1.1//EN" "http://www.w3.org/Graphics/SVG/1.1/DTD/svg11.dtd">
<svg version="1.1" id="Layer_1" xmlns="http://www.w3.org/2000/svg" xmlns:xlink="http://www.w3.org/1999/xlink" x="0px" y="0px"
	 width="24px" height="24px" viewBox="0 0 512 512" enable-background="new 0 0 512 512" xml:space="preserve">
<g>
	<circle display="none" fill="#FFFFFF" cx="256" cy="256" r="220"/>
	<path fill="#D06503" d="M256,484c-60.901,0-118.157-23.716-161.22-66.779S28,316.901,28,256c0-60.901,23.716-118.157,66.78-161.22
		S195.1,28,256,28s118.157,23.716,161.22,66.78S484,195.099,484,256c0,60.901-23.716,118.157-66.779,161.221S316.901,484,256,484z
		 M256,44C139.103,44,44,139.103,44,256s95.103,212,212,212c116.897,0,212-95.103,212-212S372.897,44,256,44z"/>
</g>
<path fill="#D06503" d="M406.286,231.712c0-58.977-17.258-106.825-38.594-107.203c0.086-0.001,0.17-0.009,0.256-0.009h-24.346
	c0,0-57.179,42.953-139.492,59.808c-2.513,13.294-4.119,29.14-4.119,47.404c0,18.266,1.605,34.11,4.119,47.405
	c82.313,16.854,139.492,59.809,139.492,59.809h24.346c-0.086,0-0.169-0.008-0.256-0.01
	C389.031,338.537,406.286,290.689,406.286,231.712z M359.563,322.705c-2.754,0-5.733-2.859-7.264-4.564
	c-3.708-4.127-7.277-10.555-10.328-18.588c-6.827-17.973-10.587-42.064-10.587-67.841c0-25.774,3.76-49.867,10.587-67.84
	c3.05-8.033,6.622-14.46,10.328-18.588c1.53-1.706,4.51-4.565,7.264-4.565c2.753,0,5.734,2.86,7.263,4.565
	c3.709,4.128,7.278,10.555,10.329,18.588c6.826,17.973,10.587,42.066,10.587,67.84c0,25.773-3.761,49.867-10.587,67.841
	c-3.05,8.033-6.623,14.461-10.329,18.588C365.298,319.846,362.317,322.705,359.563,322.705z M179.628,231.712
	c0-15.248,1.118-30.065,3.244-43.763c-13.905,1.924-26.107,3.03-41.193,3.03c-19.684,0-19.684,0-19.684,0l-16.281,27.793v25.88
	l16.279,27.792c0,0,0,0,19.684,0c15.086,0,27.289,1.107,41.193,3.031C180.747,261.779,179.628,246.961,179.628,231.712z
	 M213.777,294.209l-37.571-7.193l24.022,94.381c1.244,4.883,6.089,7.35,10.768,5.475l34.8-13.928
	c4.68-1.871,6.553-7.033,4.167-11.473L213.777,294.209z M359.563,266.781c-1.062,0-2.21-1.102-2.8-1.758
	c-1.43-1.592-2.805-4.068-3.98-7.166c-2.631-6.926-4.08-16.211-4.08-26.146c0-9.934,1.449-19.22,4.08-26.146
	c1.176-3.097,2.553-5.573,3.98-7.165c0.59-0.657,1.738-1.759,2.8-1.759s2.21,1.103,2.8,1.759c1.43,1.592,2.805,4.068,3.98,7.165
	c2.631,6.927,4.08,16.213,4.08,26.146s-1.449,19.22-4.08,26.146c-1.176,3.098-2.553,5.574-3.98,7.166
	C361.773,265.68,360.625,266.781,359.563,266.781z"/>
</svg>
